<svg preserveAspectRatio="none" width="100%" height="100%" overflow="visible" viewBox="0 0 32 32" fill="none" xmlns="http://www.w3.org/2000/svg">
  <path d="M16 0C7.08571 0 0 7.08571 0 16C0 24.9143 7.08571 32 16 32C24.9143 32 32 24.9143 32 16C32 7.08571 24.9143 0 16 0ZM16 29.7143C8.45714 29.7143 2.28571 23.5429 2.28571 16C2.28571 8.45714 8.45714 2.28571 16 2.28571C23.5429 2.28571 29.7143 8.45714 29.7143 16C29.7143 23.5429 23.5429 29.7143 16 29.7143Z" fill="white"/>
  <path d="M9.53397 11.152L11.1523 9.536L22.4665 20.8503L20.8483 22.464L9.53397 11.152Z" fill="white"/>
  <path d="M9.53397 20.848L20.8483 9.53371L22.4643 11.152L11.15 22.4663L9.53397 20.848Z" fill="white"/>
</svg>
