<svg preserveAspectRatio="none" width="100%" height="100%" overflow="visible" style="display: block;" viewBox="0 0 19 19" fill="none" xmlns="http://www.w3.org/2000/svg">
<g id="Icon">
<path id="Vector" d="M7.125 13.4583H5.54167C4.49185 13.4583 3.48503 13.0413 2.7427 12.299C2.00037 11.5566 1.58333 10.5498 1.58333 9.5C1.58333 8.45018 2.00037 7.44337 2.7427 6.70104C3.48503 5.9587 4.49185 5.54167 5.54167 5.54167H7.125" stroke="var(--stroke-0, #2A9DF8)" stroke-width="1.58333" stroke-linecap="round" stroke-linejoin="round"/>
<path id="Vector_2" d="M11.875 5.54167H13.4583C14.5081 5.54167 15.515 5.9587 16.2573 6.70104C16.9996 7.44337 17.4167 8.45018 17.4167 9.5C17.4167 10.5498 16.9996 11.5566 16.2573 12.299C15.515 13.0413 14.5081 13.4583 13.4583 13.4583H11.875" stroke="var(--stroke-0, #2A9DF8)" stroke-width="1.58333" stroke-linecap="round" stroke-linejoin="round"/>
<path id="Vector_3" d="M6.33333 9.5H12.6667" stroke="var(--stroke-0, #2A9DF8)" stroke-width="1.58333" stroke-linecap="round" stroke-linejoin="round"/>
</g>
</svg>
