<svg preserveAspectRatio="none" width="100%" height="100%" overflow="visible" style="display: block;" viewBox="0 0 19 19" fill="none" xmlns="http://www.w3.org/2000/svg">
<g id="Icon">
<path id="Vector" d="M2.375 11.0833H4.75C5.16993 11.0833 5.57265 11.2501 5.86959 11.5471C6.16652 11.844 6.33333 12.2467 6.33333 12.6667V15.0417C6.33333 15.4616 6.16652 15.8643 5.86959 16.1613C5.57265 16.4582 5.16993 16.625 4.75 16.625H3.95833C3.53841 16.625 3.13568 16.4582 2.83875 16.1613C2.54181 15.8643 2.375 15.4616 2.375 15.0417V9.5C2.375 7.61033 3.12567 5.79806 4.46186 4.46186C5.79806 3.12567 7.61033 2.375 9.5 2.375C11.3897 2.375 13.2019 3.12567 14.5381 4.46186C15.8743 5.79806 16.625 7.61033 16.625 9.5V15.0417C16.625 15.4616 16.4582 15.8643 16.1613 16.1613C15.8643 16.4582 15.4616 16.625 15.0417 16.625H14.25C13.8301 16.625 13.4273 16.4582 13.1304 16.1613C12.8335 15.8643 12.6667 15.4616 12.6667 15.0417V12.6667C12.6667 12.2467 12.8335 11.844 13.1304 11.5471C13.4273 11.2501 13.8301 11.0833 14.25 11.0833H16.625" stroke="var(--stroke-0, #2A9DF8)" stroke-width="1.58333" stroke-linecap="round" stroke-linejoin="round"/>
</g>
</svg>
