<svg preserveAspectRatio="none" width="100%" height="100%" overflow="visible" style="display: block;" viewBox="0 0 19 19" fill="none" xmlns="http://www.w3.org/2000/svg">
<g id="Icon" clip-path="url(#clip0_0_12)">
<path id="Vector" d="M8.3125 16.2292L16.2292 8.3125C16.5991 7.94997 16.8935 7.51771 17.0953 7.0407C17.2971 6.5637 17.4024 6.05141 17.405 5.53347C17.4076 5.01553 17.3076 4.5022 17.1106 4.02318C16.9136 3.54416 16.6235 3.10895 16.2573 2.7427C15.8911 2.37646 15.4558 2.08645 14.9768 1.88945C14.4978 1.69245 13.9845 1.59236 13.4665 1.59498C12.9486 1.59759 12.4363 1.70286 11.9593 1.90469C11.4823 2.10652 11.05 2.40091 10.6875 2.77083L2.77083 10.6875C2.40091 11.05 2.10652 11.4823 1.90469 11.9593C1.70286 12.4363 1.59759 12.9486 1.59498 13.4665C1.59236 13.9845 1.69245 14.4978 1.88945 14.9768C2.08645 15.4558 2.37646 15.8911 2.7427 16.2573C3.10895 16.6235 3.54416 16.9136 4.02318 17.1106C4.5022 17.3076 5.01553 17.4076 5.53347 17.405C6.05141 17.4024 6.5637 17.2971 7.0407 17.0953C7.51771 16.8935 7.94997 16.5991 8.3125 16.2292Z" stroke="var(--stroke-0, #2A9DF8)" stroke-width="1.58333" stroke-linecap="round" stroke-linejoin="round"/>
<path id="Vector_2" d="M6.72917 6.72917L12.2708 12.2708" stroke="var(--stroke-0, #2A9DF8)" stroke-width="1.58333" stroke-linecap="round" stroke-linejoin="round"/>
</g>
<defs>
<clipPath id="clip0_0_12">
<rect width="19" height="19" fill="white"/>
</clipPath>
</defs>
</svg>
