<svg preserveAspectRatio="none" width="100%" height="100%" overflow="visible" style="display: block;" viewBox="0 0 35 27.6089" fill="none" xmlns="http://www.w3.org/2000/svg">
<g id="Group 2147203619">
<path id="Vector 5946" d="M27.5 26.1089C27 27.6088 25 27.6089 25 27.6089H22H13C1 27.6089 0 15.2462 0 13.7462C0 12.2462 0.5 4.60893 8 1.10893C15.5 -2.39107 23.5 3.24617 25.5 6.24622C27.5 9.24627 28.1667 16.1089 28 20.6089C28 20.6089 28 24.6091 27.5 26.1089Z" fill="url(#paint0_linear_0_25)"/>
<circle id="Ellipse 6083" cx="27" cy="15" r="8" fill="var(--fill-0, #D9D9D9)" fill-opacity="0.2"/>
<g id="Vector 5947" filter="url(#filter1_d_0_25)">
<path d="M26 12V15.5C26 16.0523 26.4477 16.5 27 16.5H30" stroke="var(--stroke-0, white)" stroke-width="2" stroke-linecap="round"/>
</g>
<circle id="Ellipse 6084" cx="7" cy="14" r="2" fill="var(--fill-0, white)"/>
<circle id="Ellipse 6085" cx="14" cy="14" r="2" fill="var(--fill-0, white)"/>
</g>
<defs>
<filter id="filter1_d_0_25" x="22.7" y="10.7" width="8.6" height="9.1" filterUnits="userSpaceOnUse" color-interpolation-filters="sRGB">
<feFlood flood-opacity="0" result="BackgroundImageFix"/>
<feColorMatrix in="SourceAlpha" type="matrix" values="0 0 0 0 0 0 0 0 0 0 0 0 0 0 0 0 0 0 127 0" result="hardAlpha"/>
<feOffset dx="-1" dy="1"/>
<feGaussianBlur stdDeviation="0.65"/>
<feComposite in2="hardAlpha" operator="out"/>
<feColorMatrix type="matrix" values="0 0 0 0 0.21216 0 0 0 0 0.478854 0 0 0 0 0.776923 0 0 0 1 0"/>
<feBlend mode="normal" in2="BackgroundImageFix" result="effect1_dropShadow_0_25"/>
<feBlend mode="normal" in="SourceGraphic" in2="effect1_dropShadow_0_25" result="shape"/>
</filter>
<linearGradient id="paint0_linear_0_25" x1="14.0123" y1="0" x2="14.0123" y2="27.6089" gradientUnits="userSpaceOnUse">
<stop stop-color="#3EB8F8"/>
<stop offset="1" stop-color="#335CF2"/>
</linearGradient>
</defs>
</svg>
