<svg preserveAspectRatio="none" width="100%" height="100%" overflow="visible" style="display: block;" viewBox="0 0 32.4408 28" fill="none" xmlns="http://www.w3.org/2000/svg">
<g id="Group 2147203624">
<path id="Vector" d="M0 28V25.7056C0 19.7929 5.22309 15 11.6668 15H18.3332C24.7769 15 30 19.7929 30 25.7056V28H0Z" fill="url(#paint0_linear_0_4)"/>
<path id="Vector_2" d="M6 9.5C6 12.0196 7.00089 14.4359 8.78249 16.2175C10.5641 17.9991 12.9804 19 15.5 19C18.0196 19 20.4359 17.9991 22.2175 16.2175C23.9991 14.4359 25 12.0196 25 9.5C25 6.98044 23.9991 4.56408 22.2175 2.78249C20.4359 1.00089 18.0196 0 15.5 0C12.9804 0 10.5641 1.00089 8.78249 2.78249C7.00089 4.56408 6 6.98044 6 9.5Z" fill="url(#paint1_linear_0_4)"/>
<path id="Vector_3" d="M31.655 21.4117C31.8027 21.4047 31.9486 21.4434 32.0734 21.5242C31.5654 21.199 31.2578 20.6383 31.2595 20.0336V16.5355C31.2595 13.9709 29.4015 11.8316 26.9195 11.3061V11.1795C26.9195 10.5273 26.3904 10 25.7382 10H25.7365C25.0843 10 24.5535 10.5291 24.5535 11.1813V11.3043C22.0697 11.8316 20.2134 13.9691 20.2134 16.5355V20.0354C20.2134 20.6629 19.8865 21.2113 19.3978 21.526C19.5208 21.4451 19.6685 21.4047 19.8162 21.4135C19.382 21.3977 19.0164 21.7369 19.0005 22.1711C18.9847 22.6053 19.324 22.9709 19.7581 22.9867H31.6515C32.0857 22.9885 32.439 22.6352 32.4408 22.201C32.4425 21.765 32.091 21.4117 31.655 21.4117ZM25.7382 25.743C26.8281 25.743 27.7105 24.8605 27.7105 23.776H23.7642C23.7642 24.8605 24.6466 25.743 25.7382 25.743Z" fill="var(--fill-0, #E6D4D4)" fill-opacity="0.2"/>
<g id="Vector 5951" filter="url(#filter1_d_0_4)">
<path d="M23.5 16V19.5" stroke="var(--stroke-0, white)" stroke-width="2" stroke-linecap="round"/>
</g>
</g>
<defs>
<filter id="filter1_d_0_4" x="22" y="15" width="3" height="7" filterUnits="userSpaceOnUse" color-interpolation-filters="sRGB">
<feFlood flood-opacity="0" result="BackgroundImageFix"/>
<feColorMatrix in="SourceAlpha" type="matrix" values="0 0 0 0 0 0 0 0 0 0 0 0 0 0 0 0 0 0 127 0" result="hardAlpha"/>
<feOffset dy="1"/>
<feGaussianBlur stdDeviation="0.25"/>
<feComposite in2="hardAlpha" operator="out"/>
<feColorMatrix type="matrix" values="0 0 0 0 0 0 0 0 0 0 0 0 0 0 0 0 0 0 0.25 0"/>
<feBlend mode="normal" in2="BackgroundImageFix" result="effect1_dropShadow_0_4"/>
<feBlend mode="normal" in="SourceGraphic" in2="effect1_dropShadow_0_4" result="shape"/>
</filter>
<linearGradient id="paint0_linear_0_4" x1="15" y1="15" x2="15" y2="28" gradientUnits="userSpaceOnUse">
<stop stop-color="#FC6C49"/>
<stop offset="1" stop-color="#FF4A35"/>
</linearGradient>
<linearGradient id="paint1_linear_0_4" x1="15.5" y1="0" x2="15.5" y2="19" gradientUnits="userSpaceOnUse">
<stop stop-color="#F2AA72"/>
<stop offset="1" stop-color="#FC6F4B"/>
</linearGradient>
</defs>
</svg>
