<svg preserveAspectRatio="none" width="100%" height="100%" overflow="visible" style="display: block;" viewBox="0 0 32.7864 31" fill="none" xmlns="http://www.w3.org/2000/svg">
<g id="Group 2147203625">
<path id="Vector" d="M14.4959 20.1496C-0.133786 20.1496 0.0133082 29.4684 0.0133082 29.4684C-0.0974559 30.3143 0.495353 31 1.33982 31H27.6529C28.4965 31 29.123 30.3044 28.9795 29.4684C28.9795 29.4684 29.1257 20.1496 14.4959 20.1496ZM14.4995 0H5.3415V9.3C5.3415 14.4364 9.44155 18.6 14.4995 18.6C19.5574 18.6 23.6575 14.4364 23.6575 9.3C23.6575 4.16363 19.5574 0 14.4995 0Z" fill="url(#paint0_linear_0_9)"/>
<path id="Vector_2" d="M17.9254 23.3378C17.8683 23.2122 17.8431 23.0744 17.8521 22.9367C17.8611 22.799 17.9039 22.6657 17.9767 22.5485L23.4759 13.6867C23.534 13.593 23.61 13.5117 23.6995 13.4475C23.789 13.3832 23.8903 13.3372 23.9976 13.312C24.1049 13.2869 24.2161 13.2832 24.3249 13.301C24.4336 13.3189 24.5378 13.358 24.6314 13.4161L30.5393 17.0824C30.6329 17.1405 30.7142 17.2164 30.7785 17.306C30.8428 17.3955 30.8888 17.4968 30.9139 17.6041C30.939 17.7114 30.9428 17.8226 30.9249 17.9313C30.9071 18.0401 30.868 18.1443 30.8098 18.2379L25.3105 27.0994C25.2434 27.2077 25.1525 27.2993 25.0448 27.3672C24.937 27.4351 24.8152 27.4775 24.6886 27.4913L20.1327 28.558C19.8851 28.616 19.6245 28.5732 19.4084 28.4391C19.1923 28.305 19.0383 28.0905 18.9803 27.8429L17.9254 23.3378ZM21.8825 23.9846C21.3198 23.6355 20.5807 23.8085 20.2317 24.3711C19.8826 24.9337 20.0556 25.6727 20.6182 26.0218C21.1807 26.3709 21.9198 26.1978 22.2688 25.6353C22.6179 25.0728 22.445 24.3337 21.8825 23.9846Z" fill="var(--fill-0, #59AAFF)" fill-opacity="0.2"/>
<circle id="Ellipse 6087" cx="21.5" cy="24.5" r="1.5" fill="var(--fill-0, white)"/>
<path id="Vector 5952" d="M12 4.5L16 4.5" stroke="var(--stroke-0, white)" stroke-width="2" stroke-linecap="round"/>
<path id="Vector 5953" d="M14 3L14 6" stroke="var(--stroke-0, white)" stroke-width="2" stroke-linecap="round"/>
</g>
<defs>
<linearGradient id="paint0_linear_0_9" x1="14.5" y1="0" x2="14.5" y2="31" gradientUnits="userSpaceOnUse">
<stop stop-color="#3DB6F4"/>
<stop offset="1" stop-color="#264FE2"/>
</linearGradient>
</defs>
</svg>
