<svg preserveAspectRatio="none" width="100%" height="100%" overflow="visible" style="display: block;" viewBox="0 0 38 30" fill="none" xmlns="http://www.w3.org/2000/svg">
<g id="Group 2147203623">
<g id="Group 2147203622">
<path id="Vector" d="M25.2254 18.2319C24.9158 16.8935 23.6448 15.9305 22.2433 15.9305H10.3313C10.0869 15.9305 9.84248 15.9142 9.58175 15.9142C8.19663 15.8652 6.63227 15.8162 5.60565 17.0404C4.87235 17.9218 4.87235 18.9664 4.87235 20.0273V22.0675H3.03096C2.80282 22.0675 2.13471 22.0675 2.13471 20.6149V8.2102C2.13471 7.83479 2.21619 7.55732 2.39544 7.37778C2.72135 7.05134 3.37317 7.06766 3.9598 7.06766H26.8876C27.1809 7.06766 27.3764 7.14927 27.5231 7.29617C27.8816 7.67157 27.8653 8.50399 27.849 9.17319V20.925C27.849 21.2841 27.7512 21.5452 27.5557 21.7411C27.0994 22.1655 26.1543 22.1655 25.3395 22.1165V20.7455V20.2232C25.3721 19.5703 25.3884 18.9011 25.2254 18.2319ZM6.97447 19.6356C6.97447 18.1666 7.64259 18.1666 7.88702 18.1666H21.836C22.5856 18.1666 23.0418 18.2972 23.2048 18.999C23.2537 19.2275 23.2374 19.5376 23.2211 19.8314C23.2048 19.9783 23.2048 20.1089 23.2048 20.2395V26.7519C23.2048 26.9968 23.107 27.2416 22.9115 27.4211C22.3737 27.8945 21.1841 27.8129 20.3042 27.7639C20.0435 27.7476 19.8153 27.7313 19.6198 27.7313H7.88702C7.26779 27.7313 6.95818 27.2742 6.95818 26.3439L6.97447 19.6356ZM7.03965 2.93821C7.18631 2.35062 7.70777 2.30165 8.42477 2.30165H22.3248C22.5856 2.30165 22.7648 2.36694 22.9115 2.49752C23.2537 2.84028 23.2374 3.64005 23.2374 4.27661V4.84788H6.95818C6.92559 4.17868 6.89299 3.50948 7.03965 2.93821ZM29.8533 7.14927C29.5111 5.79455 28.3053 4.84788 26.9039 4.84788H25.3558C25.3721 4.17868 25.4047 3.47683 25.3069 2.80763C25.0788 1.2244 23.8077 0.0655459 22.2922 0.0655459H10.5595C10.315 0.0655459 10.038 0.0492239 9.7447 0.0329019C8.45736 -0.0323859 6.8604 -0.0976735 5.86638 0.865322C4.77458 1.94257 4.79087 3.47683 4.82347 4.84788H4.23683C2.83542 4.84788 0.896252 4.84788 0.195546 6.93709C1.94257e-08 7.52468 0 8.14491 0 8.7325V21.0882C0 22.8347 1.38512 24.32 3.01467 24.32H4.83976V24.5485C4.79087 26.6214 4.72569 29.2165 7.18631 29.9021C7.46334 29.9837 7.77295 30 8.06627 30H22.2108C23.8892 30 25.1928 28.7269 25.3395 26.9478C25.3395 26.8988 25.3558 26.8335 25.3558 26.7846V24.32H26.9364C28.6149 24.32 30 22.8836 30 21.1045V8.79779C29.9837 8.25917 29.9837 7.70422 29.8533 7.14927Z" fill="var(--fill-0, #FEA736)"/>
<path id="Vector 5950" d="M1.87533 7.49999C2.10609 6.80769 3.22148 6.73076 3.75033 6.77884L12.8369 5.91346L24.5196 5.625L28.5581 6.77884L28.2696 11.8269L29.135 20.1923L27.9811 23.2212L24.9523 23.5096L24.0869 21.3462V18.0288L22.5004 17.1635L16.4427 16.875H7.64461L5.48115 18.8942L5.04845 22.3558H4.18307H2.16384L1.58691 21.3462L1.87533 12.9808C1.77917 11.4423 1.64456 8.1923 1.87533 7.49999Z" fill="var(--fill-0, #FEA736)"/>
</g>
<circle id="Ellipse 6086" cx="30" cy="15" r="8" fill="var(--fill-0, #D9D9D9)" fill-opacity="0.2"/>
<g id="Vector 5948" filter="url(#filter1_d_0_15)">
<path d="M29 12V15.5C29 16.0523 29.4477 16.5 30 16.5H33" stroke="var(--stroke-0, white)" stroke-width="2" stroke-linecap="round"/>
</g>
</g>
<defs>
<filter id="filter1_d_0_15" x="25.7" y="10.7" width="8.6" height="9.1" filterUnits="userSpaceOnUse" color-interpolation-filters="sRGB">
<feFlood flood-opacity="0" result="BackgroundImageFix"/>
<feColorMatrix in="SourceAlpha" type="matrix" values="0 0 0 0 0 0 0 0 0 0 0 0 0 0 0 0 0 0 127 0" result="hardAlpha"/>
<feOffset dx="-1" dy="1"/>
<feGaussianBlur stdDeviation="0.65"/>
<feComposite in2="hardAlpha" operator="out"/>
<feColorMatrix type="matrix" values="0 0 0 0 0.892308 0 0 0 0 0.548941 0 0 0 0 0.102959 0 0 0 1 0"/>
<feBlend mode="normal" in2="BackgroundImageFix" result="effect1_dropShadow_0_15"/>
<feBlend mode="normal" in="SourceGraphic" in2="effect1_dropShadow_0_15" result="shape"/>
</filter>
</defs>
</svg>
