<svg preserveAspectRatio="none" width="100%" height="100%" overflow="visible" style="display: block;" viewBox="0 0 41 27" fill="none" xmlns="http://www.w3.org/2000/svg">
<g id="Group 2147203626">
<path id="Vector" d="M0 7.71429H31V23.1429C31 23.6494 30.8998 24.1509 30.705 24.6189C30.5103 25.0869 30.2249 25.5121 29.865 25.8703C29.5052 26.2284 29.078 26.5126 28.6079 26.7064C28.1378 26.9002 27.6339 27 27.125 27H3.875C3.36613 27 2.86224 26.9002 2.3921 26.7064C1.92196 26.5126 1.49479 26.2284 1.13496 25.8703C0.775134 25.5121 0.489704 25.0869 0.294967 24.6189C0.10023 24.1509 -5.91113e-09 23.6494 0 23.1429V7.71429ZM6.65822 3.01821e-08H24.3418C24.9098 0.000212018 25.4707 0.124703 25.985 0.364658C26.4993 0.604614 26.9543 0.954167 27.3178 1.38857L31 5.78571H0L3.68125 1.38857C4.04496 0.953917 4.50027 0.604215 5.0149 0.364249C5.52953 0.124284 6.09089 -7.07312e-05 6.65919 3.01821e-08H6.65822ZM16.4126 13.9098L19.5455 17.0293C19.6355 17.1188 19.7423 17.1898 19.8599 17.2382C19.9775 17.2867 20.1035 17.3116 20.2307 17.3115C20.358 17.3115 20.484 17.2865 20.6015 17.238C20.7191 17.1895 20.8259 17.1184 20.9158 17.0288C21.0057 16.9392 21.0771 16.8329 21.1257 16.7158C21.1744 16.5988 21.1994 16.4734 21.1994 16.3467C21.1993 16.2201 21.1742 16.0946 21.1255 15.9776C21.0767 15.8606 21.0053 15.7543 20.9153 15.6648L16.2072 10.9794C16.1168 10.8632 16.001 10.7692 15.8685 10.7046C15.736 10.6399 15.5904 10.6063 15.4428 10.6063C15.2953 10.6063 15.1497 10.6399 15.0172 10.7046C14.8847 10.7692 14.7689 10.8632 14.6785 10.9794L9.97038 15.6658C9.88043 15.7554 9.8091 15.8617 9.76045 15.9788C9.71179 16.0958 9.68677 16.2212 9.68682 16.3479C9.68691 16.6037 9.78908 16.849 9.97086 17.0298C10.1526 17.2106 10.3991 17.3121 10.6561 17.312C10.7834 17.312 10.9093 17.287 11.0269 17.2385C11.1444 17.19 11.2512 17.1189 11.3412 17.0293L14.4751 13.9098V21.2143C14.4751 21.47 14.5771 21.7153 14.7588 21.8961C14.9405 22.077 15.1869 22.1786 15.4438 22.1786C15.7007 22.1786 15.9471 22.077 16.1288 21.8961C16.3105 21.7153 16.4126 21.47 16.4126 21.2143V13.9098Z" fill="url(#paint0_linear_0_21)"/>
<circle id="Ellipse 6088" cx="32.5" cy="16.5" r="8.5" fill="var(--fill-0, #D9D9D9)" fill-opacity="0.2"/>
<g id="Vector 5949" filter="url(#filter1_d_0_21)">
<path d="M28 16L31.5 18.5L37 13" stroke="var(--stroke-0, white)" stroke-width="2" stroke-linecap="round"/>
</g>
</g>
<defs>
<filter id="filter1_d_0_21" x="24.6999" y="10.7" width="15.6001" height="12.4061" filterUnits="userSpaceOnUse" color-interpolation-filters="sRGB">
<feFlood flood-opacity="0" result="BackgroundImageFix"/>
<feColorMatrix in="SourceAlpha" type="matrix" values="0 0 0 0 0 0 0 0 0 0 0 0 0 0 0 0 0 0 127 0" result="hardAlpha"/>
<feOffset dy="1"/>
<feGaussianBlur stdDeviation="1.15"/>
<feComposite in2="hardAlpha" operator="out"/>
<feColorMatrix type="matrix" values="0 0 0 0 0 0 0 0 0 0 0 0 0 0 0 0 0 0 0.25 0"/>
<feBlend mode="normal" in2="BackgroundImageFix" result="effect1_dropShadow_0_21"/>
<feBlend mode="normal" in="SourceGraphic" in2="effect1_dropShadow_0_21" result="shape"/>
</filter>
<linearGradient id="paint0_linear_0_21" x1="15.5" y1="0" x2="15.5" y2="27" gradientUnits="userSpaceOnUse">
<stop stop-color="#1DD8AD"/>
<stop offset="1" stop-color="#00B484"/>
</linearGradient>
</defs>
</svg>
